<?xml version="1.0" encoding="UTF-8"?><svg xmlns="http://www.w3.org/2000/svg" viewBox="0 0 209.29 125.58"><defs><style>.d{fill:#e50609;}.e{fill:#b1080f;}.f{fill:#68676c;}</style></defs><g id="a"/><g id="b"><g id="c"><rect class="e" width="3.77" height="125"/><g><polygon class="d" points="73.99 2.42 36.4 77.58 73.99 77.58 73.99 2.42"/><polygon class="e" points="73.99 2.42 73.99 77.58 111.57 77.58 73.99 2.42"/><path class="d" d="M145.39,2.42h-26.31V55.04h26.31c14.53,0,26.31-11.77,26.32-26.3,0-14.53-11.77-26.31-26.3-26.32h-.02Z"/><rect class="e" x="119.08" y="2.42" width="18.79" height="75.16"/></g><g><path class="f" d="M46,101.85l-1.3-3.76h-5.29l-1.25,3.74h-3.11l5.3-15.07c.25-.1,.5-.17,.77-.22,.35-.07,.7-.11,1.06-.1,.19,0,.37,.02,.56,.04,.21,.03,.42,.1,.61,.19,.21,.11,.4,.25,.56,.42,.2,.22,.34,.48,.42,.76l4.91,13.97-3.23,.02Zm-3.91-12.54l-2.08,6.51h4.09l-2.01-6.51Z"/><path class="f" d="M61.44,91.05c.03,.86-.14,1.72-.49,2.51-.31,.66-.77,1.22-1.36,1.65-.59,.43-1.26,.74-1.97,.9-.78,.19-1.58,.28-2.39,.28h-1.1v5.45h-3.15v-15.21c.68-.07,1.38-.13,2.1-.17s1.36-.05,1.94-.05c2.24,0,3.87,.39,4.9,1.17,1.04,.84,1.61,2.13,1.52,3.46Zm-3.2,.16c.07-.75-.23-1.49-.81-1.97-.62-.42-1.36-.63-2.11-.6-.41,0-.82,.02-1.23,.07v5.48h.76c.89,.06,1.78-.17,2.54-.65,.58-.44,.87-1.22,.86-2.33Z"/><path class="f" d="M71.85,92.76h5.75v-6.19c.21-.03,.42-.06,.64-.08,.16-.02,.33-.03,.49-.03,.22,0,.44,.03,.65,.07,.23,.04,.45,.13,.65,.26,.21,.14,.38,.32,.49,.54,.14,.28,.21,.6,.2,.91v13.61h-3.13v-6.62h-5.75v6.62h-3.13v-15.28c.21-.03,.42-.06,.63-.08,.16-.02,.33-.03,.49-.03,.23,0,.47,.02,.7,.07,.23,.04,.45,.13,.65,.26,.21,.14,.37,.32,.49,.54,.14,.28,.21,.6,.19,.91l-.02,4.52Z"/><path class="f" d="M97.16,94.14c0,1.05-.12,2.1-.38,3.12-.24,.93-.66,1.81-1.23,2.58-.58,.75-1.32,1.34-2.17,1.74-1,.45-2.09,.67-3.19,.64-1.09,.03-2.17-.19-3.15-.65-.84-.41-1.57-1.01-2.12-1.76-.56-.77-.97-1.64-1.2-2.57-.26-1.01-.38-2.04-.38-3.08,0-1.03,.13-2.05,.41-3.04,.25-.92,.69-1.78,1.28-2.52,.59-.73,1.34-1.32,2.19-1.72,1.99-.85,4.25-.86,6.25-.02,.83,.39,1.55,.96,2.11,1.68,.56,.75,.97,1.6,1.21,2.5,.26,1.01,.39,2.06,.38,3.1Zm-3.22,.02c0-.7-.06-1.39-.18-2.08-.1-.61-.31-1.19-.62-1.73-.27-.48-.66-.88-1.12-1.17-.51-.3-1.1-.45-1.69-.43-1.2-.06-2.34,.56-2.94,1.61-.31,.53-.53,1.12-.64,1.73-.13,.68-.2,1.38-.19,2.08,0,.7,.06,1.41,.19,2.1,.11,.62,.32,1.23,.63,1.78,.27,.5,.66,.92,1.14,1.23,1.07,.6,2.38,.6,3.45,0,.47-.31,.86-.73,1.13-1.23,.3-.56,.5-1.16,.62-1.78,.13-.69,.2-1.38,.2-2.08h0Z"/><path class="f" d="M106.54,95.87v-2.33h5.53v6.85c-.19,.22-.41,.41-.64,.57-.35,.24-.72,.45-1.12,.61-.52,.21-1.07,.38-1.62,.49-.7,.14-1.41,.2-2.12,.19-1.1,.03-2.19-.18-3.21-.61-.87-.37-1.63-.94-2.24-1.66-.61-.75-1.05-1.61-1.3-2.54-.29-1.04-.43-2.12-.42-3.21,0-1.07,.14-2.14,.44-3.16,.27-.92,.74-1.78,1.36-2.52,.63-.73,1.42-1.3,2.31-1.68,1.04-.43,2.16-.63,3.29-.61,.6,0,1.21,.07,1.79,.22,.54,.13,1.06,.32,1.55,.56,.4,.19,.77,.45,1.08,.77,.25,.22,.4,.53,.41,.85-.02,.32-.14,.62-.33,.87-.22,.32-.49,.61-.79,.87-.18-.17-.39-.35-.63-.53-.54-.41-1.15-.71-1.81-.88-.41-.1-.82-.15-1.24-.15-.71-.02-1.42,.13-2.05,.46-.53,.28-.98,.7-1.3,1.2-.33,.52-.56,1.09-.69,1.7-.14,.65-.2,1.31-.2,1.97,0,.71,.07,1.41,.22,2.1,.13,.63,.37,1.23,.71,1.77,.33,.51,.79,.94,1.32,1.23,.64,.33,1.35,.49,2.07,.47,.33,0,.66-.03,.99-.09,.23-.05,.46-.12,.68-.2,.19-.09,.36-.2,.53-.32v-3.27h-2.56Z"/><path class="f" d="M123.12,99.43c.54-.07,1.09,.12,1.48,.49,.26,.31,.4,.71,.4,1.12v.42c0,.11,0,.24-.03,.38h-9.87v-15.3h9.53c.03,.14,.04,.28,.05,.42v.42c.03,.44-.12,.87-.41,1.2-.44,.32-.99,.46-1.53,.39h-4.5v3.77h4.84v2.47h-4.84v4.22h4.89Z"/><path class="f" d="M127.02,98.33c.49,.38,1.01,.71,1.56,.99,.68,.34,1.44,.51,2.2,.49,.32,0,.63-.04,.94-.12,.29-.07,.56-.19,.81-.35,.24-.16,.44-.38,.58-.63,.16-.29,.24-.62,.23-.96,0-.35-.08-.69-.25-.99-.17-.28-.39-.52-.66-.7-.31-.2-.64-.37-.99-.49-.37-.14-.74-.28-1.12-.41-.49-.17-.99-.35-1.48-.55-.48-.19-.93-.45-1.34-.78-.41-.33-.75-.75-.99-1.22-.27-.59-.4-1.24-.38-1.89-.01-.67,.14-1.34,.43-1.94,.28-.55,.69-1.04,1.19-1.41,.53-.38,1.11-.67,1.74-.84,.68-.19,1.38-.29,2.08-.29,.47,0,.94,.04,1.4,.11,.39,.07,.78,.16,1.16,.28,.3,.09,.59,.2,.87,.33,.19,.09,.37,.19,.54,.31,.39,.19,.64,.59,.64,1.03-.02,.26-.1,.51-.24,.74-.18,.34-.41,.65-.68,.92-.46-.35-.95-.64-1.48-.86-.87-.4-1.84-.51-2.77-.33-.28,.05-.54,.14-.79,.27-.24,.13-.44,.31-.58,.54-.16,.25-.24,.55-.23,.84,0,.29,.07,.58,.23,.83,.16,.25,.37,.46,.62,.62,.28,.19,.59,.34,.9,.47l1.06,.41c.49,.18,.99,.38,1.48,.59,.49,.21,.95,.48,1.37,.81,.41,.34,.74,.76,.99,1.23,.27,.58,.41,1.22,.38,1.86,.02,.73-.13,1.46-.42,2.14-.27,.6-.67,1.14-1.17,1.56-.53,.44-1.15,.77-1.82,.96-.75,.22-1.53,.33-2.32,.32-.9,.03-1.8-.08-2.66-.33-.51-.15-1.01-.35-1.48-.61-.18-.12-.33-.26-.46-.43-.12-.16-.19-.36-.18-.57,.02-.33,.13-.66,.31-.94,.23-.36,.49-.71,.76-1.03Z"/><path class="f" d="M149.81,100.98c-.14,.13-.29,.24-.45,.34-.26,.17-.54,.3-.83,.41-.41,.16-.83,.27-1.26,.36-.56,.1-1.13,.15-1.7,.15-1.1,.03-2.18-.18-3.2-.59-.86-.37-1.63-.94-2.23-1.66-.6-.74-1.04-1.59-1.29-2.51-.29-1.04-.43-2.11-.41-3.18,0-1.09,.14-2.17,.45-3.21,.27-.93,.72-1.8,1.33-2.55,.6-.72,1.37-1.3,2.23-1.68,.99-.42,2.06-.63,3.14-.61,.54,0,1.08,.05,1.61,.16,.43,.09,.85,.22,1.25,.38,.31,.12,.61,.27,.89,.46,.19,.12,.37,.25,.53,.4,.14,.12,.26,.27,.36,.43,.1,.17,.15,.36,.15,.55-.01,.33-.13,.66-.34,.92-.23,.3-.48,.58-.76,.84-.18-.18-.39-.37-.62-.56-.24-.19-.49-.36-.77-.49-.31-.16-.63-.28-.96-.37-.39-.1-.79-.16-1.2-.15-.69-.03-1.37,.14-1.97,.47-.51,.3-.95,.72-1.26,1.22-.33,.53-.56,1.11-.69,1.72-.14,.65-.21,1.31-.21,1.97,0,.69,.07,1.38,.21,2.06,.13,.62,.39,1.21,.75,1.73,.34,.5,.79,.92,1.31,1.21,.62,.32,1.32,.48,2.02,.45,.4,0,.79-.05,1.17-.16,.33-.1,.65-.23,.95-.39,.25-.14,.5-.31,.72-.49,.2-.17,.38-.31,.49-.43l.32,.39c.12,.15,.23,.31,.34,.49,.1,.16,.2,.32,.28,.49,.07,.14,.11,.3,.11,.45,0,.17-.04,.34-.11,.49-.1,.17-.22,.34-.37,.48Z"/><path class="f" d="M155.77,92.76h5.75v-6.19c.21-.03,.42-.06,.64-.08,.16-.02,.33-.03,.49-.03,.22,0,.44,.03,.65,.07,.23,.04,.45,.13,.65,.26,.21,.14,.37,.32,.49,.54,.14,.28,.21,.6,.19,.91v13.61h-3.13v-6.62h-5.75v6.62h-3.13v-15.28c.21-.03,.42-.06,.63-.08,.16-.02,.33-.03,.49-.03,.23,0,.47,.02,.7,.07,.23,.04,.45,.13,.65,.26,.21,.14,.38,.32,.49,.54,.14,.28,.21,.6,.19,.91l-.02,4.52Z"/><path class="f" d="M181.07,94.14c0,1.05-.13,2.1-.39,3.12-.24,.93-.66,1.81-1.23,2.58-.58,.75-1.32,1.34-2.17,1.74-1,.45-2.09,.67-3.19,.64-1.09,.03-2.17-.19-3.15-.65-.84-.41-1.57-1.01-2.12-1.76-.56-.77-.97-1.64-1.2-2.57-.26-1.01-.38-2.04-.38-3.08,0-1.03,.13-2.05,.41-3.04,.26-.92,.69-1.77,1.28-2.52,.59-.73,1.34-1.32,2.19-1.72,1.99-.85,4.25-.86,6.25-.02,.83,.39,1.55,.96,2.11,1.68,.56,.75,.97,1.6,1.21,2.5,.27,1.01,.4,2.06,.39,3.1Zm-3.22,.02c0-.7-.06-1.39-.18-2.08-.1-.61-.31-1.19-.62-1.73-.27-.47-.65-.86-1.11-1.15-.51-.3-1.1-.45-1.69-.43-1.2-.06-2.33,.57-2.93,1.61-.31,.53-.53,1.12-.64,1.73-.13,.68-.2,1.38-.19,2.08,0,.7,.06,1.41,.19,2.1,.11,.62,.32,1.23,.63,1.78,.27,.5,.67,.92,1.15,1.23,1.07,.61,2.38,.61,3.45,0,.47-.31,.86-.73,1.13-1.23,.3-.56,.51-1.16,.62-1.78,.14-.69,.21-1.4,.21-2.1h0Z"/><path class="f" d="M197.15,94.14c0,1.05-.12,2.1-.39,3.12-.24,.93-.65,1.81-1.23,2.58-.57,.75-1.32,1.34-2.17,1.74-1,.45-2.1,.67-3.2,.64-1.09,.03-2.17-.19-3.15-.65-.84-.41-1.56-1.01-2.12-1.76-.56-.77-.97-1.64-1.2-2.57-.26-1.01-.38-2.04-.38-3.08,0-1.03,.13-2.05,.41-3.04,.26-.92,.69-1.77,1.28-2.52,.59-.73,1.34-1.32,2.2-1.72,1.99-.85,4.24-.86,6.24-.02,.83,.39,1.55,.96,2.11,1.68,.57,.75,.98,1.6,1.21,2.5,.27,1.01,.4,2.06,.39,3.1Zm-3.22,.02c0-.7-.06-1.39-.18-2.08-.1-.61-.31-1.19-.62-1.73-.27-.48-.65-.88-1.12-1.17-.51-.3-1.1-.45-1.69-.43-1.2-.06-2.33,.57-2.93,1.61-.31,.53-.53,1.12-.64,1.73-.13,.68-.2,1.38-.19,2.08,0,.7,.06,1.41,.19,2.1,.11,.62,.33,1.23,.63,1.78,.27,.5,.66,.92,1.14,1.23,1.07,.61,2.38,.61,3.45,0,.48-.31,.86-.73,1.13-1.23,.3-.56,.51-1.16,.62-1.78,.13-.69,.2-1.38,.21-2.08h0Z"/><path class="f" d="M202.99,99.32h4.44c.31,0,.62,.04,.91,.14,.22,.07,.42,.2,.57,.37,.14,.15,.23,.33,.29,.52,.05,.19,.08,.39,.08,.59v.55c0,.12,0,.25-.03,.37h-9.41v-15.28c.21-.03,.42-.06,.63-.08,.16-.02,.31-.03,.47-.03,.23,0,.47,.02,.7,.07,.23,.05,.46,.13,.66,.26,.21,.13,.38,.32,.49,.54,.14,.28,.21,.6,.19,.91v11.08Z"/></g><g><path class="f" d="M46.38,125.35l-1.31-3.76h-5.3l-1.26,3.76h-3.12l5.32-15.12c.25-.09,.51-.17,.77-.22,.35-.07,.71-.11,1.06-.1,.19,0,.37,.02,.56,.04,.21,.04,.42,.1,.61,.2,.21,.11,.4,.25,.56,.42,.2,.22,.34,.48,.43,.76l4.93,14.02h-3.24Zm-3.92-12.57l-2.08,6.52h4.1l-2.02-6.52Z"/><path class="f" d="M63.42,125.35h-2.66l-6.53-10.08v10.08h-3v-15.3c.15-.03,.36-.06,.62-.09,.26-.03,.52-.04,.78-.04,.4-.02,.79,.07,1.14,.25,.3,.2,.55,.46,.73,.78l5.91,9.64v-10.56l.59-.08c.18,0,.33-.03,.44-.03,.23,0,.46,.02,.69,.07,.22,.04,.44,.13,.63,.26,.2,.14,.36,.33,.47,.54,.13,.29,.2,.6,.18,.92v13.65Z"/><path class="f" d="M69.88,112.58h-4.79v-.02c-.04-.15-.06-.31-.07-.47v-.44c0-.42,.16-.82,.45-1.13,.4-.37,.94-.55,1.49-.5h10.77c.04,.33,.07,.66,.06,.99,0,.39-.13,.77-.39,1.07-.39,.38-.94,.56-1.49,.5h-2.87v12.78h-3.16v-12.78Z"/><path class="f" d="M93.42,125.45h-2.59l-2.59-8.02-2.48,8.02h-2.58l-5.11-15.26c.26-.09,.52-.16,.79-.2,.29-.06,.59-.09,.88-.09,.47-.03,.93,.11,1.32,.38,.34,.29,.58,.68,.7,1.11l2.97,9.8,2.25-7.19-1.05-3.89c.29-.06,.56-.11,.81-.15,.23-.04,.46-.06,.7-.06,.47-.04,.94,.1,1.32,.39,.32,.3,.55,.69,.65,1.12l2.7,9.52,2.6-9.32c.12-.46,.36-.88,.69-1.22,.36-.34,.84-.52,1.33-.5,.31,0,.61,.02,.92,.08,.26,.05,.5,.11,.71,.17l-4.94,15.3Z"/><path class="f" d="M108.12,122.92c.54-.07,1.09,.12,1.49,.5,.26,.32,.4,.71,.4,1.12v.42c0,.11,0,.24-.03,.38h-9.9v-15.35h9.55c.03,.14,.05,.28,.05,.42v.43c.03,.44-.12,.88-.42,1.2-.44,.32-.99,.46-1.53,.4h-4.51v3.78h4.86v2.45h-4.86v4.24h4.9Z"/><path class="f" d="M122.55,114.4c.01,.57-.07,1.15-.24,1.69-.14,.46-.36,.9-.65,1.29-.26,.35-.58,.66-.94,.92-.33,.23-.7,.43-1.08,.57l3.79,6.32c-.3,.12-.6,.22-.92,.29-.3,.07-.61,.1-.92,.1-.5,.02-.99-.11-1.42-.37-.44-.31-.8-.72-1.05-1.19l-2.61-4.46h-1.26v5.77h-3.16v-15.24c.68-.07,1.39-.13,2.1-.17s1.37-.06,1.95-.06c2.22,0,3.84,.38,4.87,1.12s1.54,1.88,1.54,3.41Zm-3.3,.3c0-.96-.25-1.64-.76-2.02-.6-.42-1.33-.62-2.06-.58h-.71l-.5,.05v5.29h1.08c.78,.05,1.55-.19,2.16-.67,.55-.53,.84-1.29,.78-2.05Z"/><path class="f" d="M135.77,114.52c.03,.87-.14,1.73-.5,2.52-.31,.66-.78,1.23-1.36,1.66-.59,.43-1.27,.73-1.98,.9-.78,.19-1.59,.28-2.4,.28h-1.1v5.47h-3.16v-15.25c.69-.07,1.39-.13,2.11-.17s1.37-.06,1.95-.06c2.24,0,3.88,.39,4.91,1.18,1.04,.84,1.61,2.13,1.52,3.47Zm-3.21,.16c.07-.75-.23-1.49-.81-1.98-.62-.42-1.37-.63-2.12-.59-.41,0-.83,.02-1.24,.07v5.49h.75c.9,.06,1.79-.17,2.54-.65,.58-.45,.87-1.22,.87-2.34Z"/><path class="f" d="M145.98,122.92c.54-.07,1.09,.12,1.49,.5,.26,.32,.4,.71,.4,1.12v.42c0,.11,0,.24-.03,.38h-9.9v-15.35h9.55c.03,.14,.05,.28,.05,.42v.43c.03,.44-.12,.88-.42,1.2-.44,.32-.99,.46-1.53,.4h-4.51v3.78h4.86v2.45h-4.86v4.24h4.9Z"/><path class="f" d="M162.04,125.35h-2.66l-6.53-10.08v10.08h-3v-15.3c.15-.03,.36-.06,.62-.09,.26-.03,.52-.04,.78-.04,.4-.02,.79,.07,1.14,.25,.3,.2,.55,.46,.73,.78l5.91,9.64v-10.56l.59-.08c.18,0,.33-.03,.44-.03,.23,0,.46,.02,.69,.07,.22,.04,.44,.13,.63,.26,.21,.14,.37,.32,.5,.54,.13,.29,.2,.6,.18,.92l-.02,13.65Z"/></g></g></g></svg>